<svg width="53" height="53" viewBox="0 0 53 53" fill="none" xmlns="http://www.w3.org/2000/svg">
<circle cx="26.5" cy="26.5" r="26" fill="#D9D9D9" stroke="#D9D9D9"/>
<mask id="path-2-inside-1_374_3663" fill="white">
<path d="M26.5001 29.1895C35.7892 29.1895 43.8737 34.329 48.0548 41.9121C43.23 48.58 35.374 52.9209 26.5001 52.9209C17.6262 52.9209 9.77024 48.58 4.94543 41.9121C9.12654 34.329 17.2111 29.1895 26.5001 29.1895Z"/>
</mask>
<path d="M26.5001 29.1895C35.7892 29.1895 43.8737 34.329 48.0548 41.9121C43.23 48.58 35.374 52.9209 26.5001 52.9209C17.6262 52.9209 9.77024 48.58 4.94543 41.9121C9.12654 34.329 17.2111 29.1895 26.5001 29.1895Z" fill="white"/>
<path d="M26.5001 29.1895V25.1895H26.5001L26.5001 29.1895ZM48.0548 41.9121L51.2954 44.257L52.7824 42.202L51.5576 39.9807L48.0548 41.9121ZM26.5001 52.9209V56.9209H26.5001L26.5001 52.9209ZM4.94543 41.9121L1.4426 39.9808L0.217867 42.202L1.70482 44.257L4.94543 41.9121ZM26.5001 29.1895V33.1895C34.2771 33.1895 41.0476 37.4878 44.552 43.8435L48.0548 41.9121L51.5576 39.9807C46.6998 31.1702 37.3013 25.1895 26.5001 25.1895V29.1895ZM48.0548 41.9121L44.8142 39.5672C40.7104 45.2387 34.0385 48.9209 26.5001 48.9209L26.5001 52.9209L26.5001 56.9209C36.7095 56.9209 45.7496 51.9213 51.2954 44.257L48.0548 41.9121ZM26.5001 52.9209V48.9209C18.9617 48.9209 12.2899 45.2387 8.18605 39.5672L4.94543 41.9121L1.70482 44.257C7.25063 51.9213 16.2908 56.9209 26.5001 56.9209V52.9209ZM4.94543 41.9121L8.44827 43.8435C11.9526 37.4878 18.7232 33.1895 26.5001 33.1895L26.5001 29.1895L26.5001 25.1895C15.699 25.1895 6.30045 31.1702 1.4426 39.9808L4.94543 41.9121Z" fill="#D9D9D9" mask="url(#path-2-inside-1_374_3663)"/>
<circle cx="26.5" cy="18.4142" r="9.87687" fill="white" stroke="#D9D9D9" stroke-width="2"/>
</svg>
